<?xml version="1.0" encoding="utf-8"?>
<!-- Generator: Adobe Illustrator 19.0.0, SVG Export Plug-In . SVG Version: 6.00 Build 0)  -->
<svg version="1.1" id="Layer_1" xmlns="http://www.w3.org/2000/svg" xmlns:xlink="http://www.w3.org/1999/xlink" x="0px" y="0px"
	 viewBox="-127 129 256 256" style="enable-background:new -127 129 256 256;" xml:space="preserve">
<style type="text/css">
	.st0{display:none;}
	.st1{display:inline;fill:#586772;}
	.st2{fill:#247E8F;}
</style>
<g id="Layer_1_1_" class="st0">
	<circle id="XMLID_1_" class="st1" cx="-293.7" cy="697.9" r="24"/>
	<circle id="XMLID_3_" class="st1" cx="-190.1" cy="599.9" r="29.6"/>
	<circle id="XMLID_5_" class="st1" cx="-86.5" cy="802.5" r="24"/>
	
		<rect id="XMLID_2_" x="-319.1" y="634.5" transform="matrix(0.7071 -0.7071 0.7071 0.7071 -526.0784 23.4206)" class="st1" width="168.7" height="24.4"/>
	
		<rect id="XMLID_6_" x="-260.5" y="684.8" transform="matrix(-0.4292 -0.9032 0.9032 -0.4292 -832.2314 867.9705)" class="st1" width="237.3" height="24.4"/>
	
		<rect id="XMLID_7_" x="-308.7" y="736.8" transform="matrix(-0.892 -0.452 0.452 -0.892 -698.1324 1331.2295)" class="st1" width="237.3" height="24.4"/>
</g>
<g id="Layer_2">
	<g id="XMLID_19_">
		<g id="XMLID_20_">
			<g id="XMLID_21_">
				<g id="XMLID_22_">
					<path id="XMLID_23_" class="st2" d="M110.7,129h-219.4c-10.1,0-18.3,8.2-18.3,18.3v182.8c0,10.1,8.2,18.3,18.3,18.3h219.4
						c10,0,18.3-8.2,18.3-18.3V147.3C129,137.2,120.8,129,110.7,129z M-39.6,142.7c5,0,9.1,4.1,9.1,9.1s-4.1,9.2-9.1,9.2
						s-9.2-4.1-9.2-9.2C-48.7,146.8-44.6,142.7-39.6,142.7z M-67.6,142.7c5,0,9.2,4.1,9.2,9.1s-4.1,9.2-9.2,9.2
						c-5.1,0-9.2-4.1-9.2-9.2C-76.7,146.8-72.6,142.7-67.6,142.7z M-95,142.7c5.1,0,9.2,4.1,9.2,9.1s-4.1,9.2-9.2,9.2
						c-5,0-9.1-4.1-9.1-9.2C-104.1,146.8-100,142.7-95,142.7z M110.7,330.2h-219.4V174.9h219.4V330.2z"/>
				</g>
			</g>
		</g>
	</g>
</g>
<g>
	<g>
		<path class="st2" d="M-2.3,250.8c-3.7-1.6-5.2-2.7-5.2-4.8c0-1.7,1.2-3.7,4.5-3.7c2.7,0,4.4,1,5.3,1.5l1-2.8
			c-1.3-0.7-3-1.4-5.5-1.5v-4.1h-2.6v4.2c-3.8,0.6-6.3,3.3-6.3,6.8c0,3.7,2.6,5.6,7,7.3c3.1,1.3,4.8,2.7,4.8,5c0,2.4-2,4.1-5,4.1
			c-2.4,0-4.5-0.8-6-1.8l-1,2.8c1.5,1.1,4,1.8,6.4,1.9v4.2h2.6v-4.4c4.4-0.7,6.7-3.8,6.7-7.2C4.3,254.7,2.1,252.6-2.3,250.8z"/>
		<path class="st2" d="M-1.6,215.4c-51.6,23.5-79.1-6.9-79.1-6.9v79.7c0,0,53.3,22.9,80.9,6.9c27.5-16.1,82.6-6.9,82.6-6.9v-79.7
			C82.7,208.5,50,191.8-1.6,215.4z M-3.6,278.5c-13.4,0-24.3-10.9-24.3-24.2s10.9-24.2,24.3-24.2s24.2,10.9,24.2,24.2
			S9.8,278.5-3.6,278.5z"/>
	</g>
</g>
</svg>
