<?xml version="1.0" encoding="utf-8"?>
<!-- Generator: Adobe Illustrator 19.0.0, SVG Export Plug-In . SVG Version: 6.00 Build 0)  -->
<svg version="1.1" id="Layer_1" xmlns="http://www.w3.org/2000/svg" xmlns:xlink="http://www.w3.org/1999/xlink" x="0px" y="0px"
	 viewBox="-127 129 256 256" style="enable-background:new -127 129 256 256;" xml:space="preserve">
<style type="text/css">
	.st0{display:none;}
	.st1{display:inline;fill:#586772;}
	.st2{fill:#247E8F;}
	.st3{opacity:0.8;}
	.st4{opacity:0.6;}
</style>
<g id="Layer_1_1_" class="st0">
	<circle id="XMLID_1_" class="st1" cx="-484.7" cy="890.9" r="24"/>
	<circle id="XMLID_3_" class="st1" cx="-381.1" cy="792.9" r="29.6"/>
	<circle id="XMLID_5_" class="st1" cx="-277.5" cy="995.5" r="24"/>
	
		<rect id="XMLID_2_" x="-510.1" y="827.5" transform="matrix(-0.7071 0.7071 -0.7071 -0.7071 -133.1139 1734.5201)" class="st1" width="168.7" height="24.4"/>
	
		<rect id="XMLID_6_" x="-451.5" y="877.7" transform="matrix(0.4292 0.9032 -0.9032 0.4292 613.823 808.5808)" class="st1" width="237.3" height="24.4"/>
	
		<rect id="XMLID_7_" x="-499.7" y="929.8" transform="matrix(0.892 0.452 -0.452 0.892 384.6548 273.9705)" class="st1" width="237.3" height="24.4"/>
</g>
<g id="Layer_2">
	<g id="XMLID_19_">
		<g id="XMLID_20_">
			<g id="XMLID_21_">
				<g id="XMLID_22_">
					<path id="XMLID_23_" class="st2" d="M110.7,129h-219.4c-10.1,0-18.3,8.2-18.3,18.3v182.8c0,10.1,8.2,18.3,18.3,18.3h219.4
						c10,0,18.3-8.2,18.3-18.3V147.3C129,137.2,120.8,129,110.7,129z M-39.6,142.7c5,0,9.1,4.1,9.1,9.1s-4.1,9.2-9.1,9.2
						s-9.2-4.1-9.2-9.2C-48.7,146.8-44.6,142.7-39.6,142.7z M-67.6,142.7c5,0,9.2,4.1,9.2,9.1s-4.1,9.2-9.2,9.2
						c-5.1,0-9.2-4.1-9.2-9.2C-76.7,146.8-72.6,142.7-67.6,142.7z M-95,142.7c5.1,0,9.2,4.1,9.2,9.1s-4.1,9.2-9.2,9.2
						c-5,0-9.1-4.1-9.1-9.2C-104.1,146.8-100,142.7-95,142.7z M110.7,330.2h-219.4V174.9h219.4V330.2z"/>
				</g>
			</g>
		</g>
	</g>
</g>
<g>
	<g>
		<path class="st2" d="M6.4,226.5c0,3.1-2.5,5.7-5.7,5.7c-3.1,0-5.7-2.5-5.7-5.7c0-3.1,2.5-5.7,5.7-5.7
			C3.9,220.9,6.4,223.4,6.4,226.5z"/>
		<path class="st2" d="M13.9,240.1c-0.5-6.2-7.7-6.1-7.7-6.1H-5.2c-8.1,0.1-7.8,6.1-7.8,6.1V254l0,0v0.1c0,1.3,1.1,2.4,2.4,2.4
			s2.4-1.1,2.4-2.4V254l0,0v-12.9h1.5v40.6c0,1.8,1.4,3.2,3.2,3.2c1.8,0,3.2-1.4,3.2-3.2v-26.2h1.4v26.3l0,0c0,1.8,1.4,3.2,3.2,3.2
			s3.2-1.4,3.2-3.2v-40.7h1.6v13l0,0l0,0c0,1.3,1.1,2.4,2.4,2.4c1.3,0,2.4-1.1,2.4-2.4l0,0l0,0V240.1z"/>
	</g>
	<g class="st3">
		<path class="st2" d="M1,321.8c-37.6,0-68.2-30.6-68.2-68.2c0-37.6,30.6-68.2,68.2-68.2s68.2,30.6,68.2,68.2
			C69.2,291.2,38.6,321.8,1,321.8z M1,190.6c-34.7,0-63,28.2-63,63c0,34.7,28.3,63,63,63s63-28.2,63-63C64,218.9,35.7,190.6,1,190.6
			z"/>
	</g>
	<g class="st4">
		<path class="st2" d="M0.2,298c-24.5,0-44.4-19.9-44.4-44.4s19.9-44.4,44.4-44.4s44.4,19.9,44.4,44.4C44.6,278.1,24.7,298,0.2,298z
			 M0.2,214.4c-21.6,0-39.2,17.6-39.2,39.2c0,21.6,17.6,39.2,39.2,39.2s39.2-17.6,39.2-39.2S21.8,214.4,0.2,214.4z"/>
	</g>
</g>
</svg>
