<?xml version="1.0" encoding="utf-8"?>
<!-- Generator: Adobe Illustrator 19.0.0, SVG Export Plug-In . SVG Version: 6.00 Build 0)  -->
<svg version="1.1" id="Layer_1" xmlns="http://www.w3.org/2000/svg" xmlns:xlink="http://www.w3.org/1999/xlink" x="0px" y="0px"
	 viewBox="-127 129 256 256" style="enable-background:new -127 129 256 256;" xml:space="preserve">
<style type="text/css">
	.st0{display:none;}
	.st1{display:inline;fill:#586772;}
	.st2{fill:#247E8F;}
</style>
<g id="Layer_1_1_" class="st0">
	<circle id="XMLID_1_" class="st1" cx="-293.7" cy="697.9" r="24"/>
	<circle id="XMLID_3_" class="st1" cx="-190.1" cy="599.9" r="29.6"/>
	<circle id="XMLID_5_" class="st1" cx="-86.5" cy="802.5" r="24"/>
	
		<rect id="XMLID_2_" x="-319.1" y="634.5" transform="matrix(-0.7071 0.7071 -0.7071 -0.7071 56.4762 1269.9932)" class="st1" width="168.7" height="24.4"/>
	
		<rect id="XMLID_6_" x="-260.5" y="684.7" transform="matrix(0.4292 0.9032 -0.9032 0.4292 548.5239 525.9036)" class="st1" width="237.3" height="24.4"/>
	
		<rect id="XMLID_7_" x="-308.7" y="736.8" transform="matrix(0.892 0.452 -0.452 0.892 318.042 166.7978)" class="st1" width="237.3" height="24.4"/>
</g>
<g id="Layer_2">
	<g id="XMLID_19_">
		<g id="XMLID_20_">
			<g id="XMLID_21_">
				<g id="XMLID_22_">
					<path id="XMLID_23_" class="st2" d="M110.7,129h-219.4c-10.1,0-18.3,8.2-18.3,18.3v182.8c0,10.1,8.2,18.3,18.3,18.3h219.4
						c10,0,18.3-8.2,18.3-18.3V147.3C129,137.2,120.8,129,110.7,129z M-39.6,142.7c5,0,9.1,4.1,9.1,9.1s-4.1,9.2-9.1,9.2
						s-9.2-4.1-9.2-9.2C-48.7,146.8-44.6,142.7-39.6,142.7z M-67.6,142.7c5,0,9.2,4.1,9.2,9.1s-4.1,9.2-9.2,9.2
						c-5.1,0-9.2-4.1-9.2-9.2C-76.7,146.8-72.6,142.7-67.6,142.7z M-95,142.7c5.1,0,9.2,4.1,9.2,9.1s-4.1,9.2-9.2,9.2
						c-5,0-9.1-4.1-9.1-9.2C-104.1,146.8-100,142.7-95,142.7z M110.7,330.2h-219.4V174.9h219.4V330.2z"/>
				</g>
			</g>
		</g>
	</g>
</g>
<g>
	<path class="st2" d="M21.9,246.2c-2.2-0.5-4.3,0.9-4.9,3c-0.5,2.2,0.8,4.3,2.9,4.9c2.2,0.5,4.3-0.9,4.9-3
		C25.3,249,24,246.8,21.9,246.2z"/>
	<path class="st2" d="M62.4,273l-0.9-2.9l-0.9-2.8l-1.1-2.6l-1-2.6l-1.1-2.5l-1-2.5l-0.8-2.6l-0.5-2.7l0.1-1.2l0.5-1.2l0.5-1.2
		l0.1-1.1l-0.3-2.3l-0.5-2.3l-0.7-2.3l-0.8-2.3l-0.8-2.3l-0.8-2.3l-0.9-2.3l-0.9-2.2l-1-2.1l-1.1-2.2l-1.1-2.1l3.3-2l-1.1-2
		l-1.3-1.8l-1.3-1.8l-1.3-1.7l-1.2-1.5l-1.3-1.4l-1.3-1.3l-1.3-1.3l-1.3-1.2l2.9-1.1l-1.5-1l-1.5-1.1l-1.5-1l-1.5-0.9l-1.6-0.9
		l-1.6-0.8l-1.7-0.8l-1.7-0.8l-1.7-0.7l-1.7-0.7l-2.2-0.7l-2.1-0.5l-2.2-0.5l-2.1-0.4l-2.2-0.4l-2.2-0.3l-2.2-0.2l-2,0.2l-2.2-0.1
		l-2.2-0.1l-2.2-0.1l-2.3,0.1l-2.2,0.1l-2.2,0.1l-2.2,0.2l-2.2,0.2l-2.3,0.3l-2.3,0.4l-2.3,0.4l-2.3,0.4l-2.3,0.7l-2.3,0.7l-2.3,0.8
		l-2.2,0.8l-2.2,0.9l-2.1,1l-2.2,1l-1.5,1l-2,1.2l-1.8,1.2l-1.8,1.3l-1.7,1.4l-1.6,1.4l-1.5,1.5l-1.5,1.5l-1.4,1.6l-1.3,1.8
		l-1.3,1.7l-1.2,1.8l-1.1,2l-1.1,2l-1,2l-0.9,2l-0.9,2l-0.8,2.1l-0.7,2.1l-0.5,2.2l-0.4,2.1l-0.7,4.3l-0.2,4.3l0.1,4.3l0.4,4.2
		l0.7,4.2l1.1,4.1l1.4,4l10.6,17.3c18,18.6,17.3,37.1,17.3,37.1l-0.4,3.7l0.3,9.9l61.7,1.3L33,335v-4l0.1-3.6l0.3-8l0.4-4.1l0.2-1
		l0.4-0.8l0.4-0.7l0.5-0.5l0.8-0.4l0.9-0.3l1-0.3l1-0.1l1.3-0.1l1.2-0.1h0.3l1.2,0.1l1.1,0.1l1.2,0.1l1.1,0.1l1.3,0.1l1.2,0.1
		l-3,0.1l1.3,0.1l1.3,0.1L50,312l0.9-0.1l0.9-0.2l0.9-0.3l0.9-0.4l0.9-0.5l0.8-0.7l0.7-0.7l0.5-0.8l0.3-1.5l-0.2-1.7l-0.3-1.7v-1.6
		l0.2-0.8l0.3-0.7l0.3-0.7l0.4-0.5l0.4-0.5l0.3-0.7l0.3-0.7l0.1-0.7l-0.1-0.8l-0.1-0.7l-0.2-0.8l-0.3-0.7l-0.5-0.7l-0.5-0.7
		l-0.7-0.4l-0.8-0.5l0.9-0.4l0.8-0.5l0.8-0.5l0.5-0.5l0.4-0.7l0.3-0.7l0.1-0.7l-0.2-0.4l-0.8-2.5l-0.4-2.3l-0.3-2.1v-2.1l1.2-0.4
		l1.1-0.4l1-0.5l0.8-0.5l0.5-0.7l0.3-0.7l0.2-0.7L62.4,273z M2,257.9c-0.3,0.2-7.5-2.8-7.5-2.8l-3.3,1.3c0,0-2.7,7.2-3,7.2h-5.9
		c-0.4,0-3.3-7.2-3.3-7.2l-3.3-1.3c0,0-7.1,3.3-7.4,2.9l-4.1-4c-0.2-0.2,2.8-7.3,2.8-7.3l-1.3-3.1c0,0-7.3-2.6-7.3-3v-5.8
		c0-0.3,7.3-3.1,7.3-3.1l1.3-3.1c0,0-3.3-6.9-3-7.2l4.1-4c0.3-0.3,7.5,2.8,7.5,2.8l3.3-1.3c0,0,2.7-7.2,3-7.2h5.9
		c0.4,0,3.3,7.2,3.3,7.2l3.3,1.3c0,0,7.1-3.3,7.4-2.9l4.1,4c0.2,0.2-2.8,7.3-2.8,7.3l1.3,3.1c0,0,7.3,2.6,7.3,3v5.8
		c0,0.4-7.3,3.1-7.3,3.1l-1.3,3.1c0,0,3.3,6.9,3,7.2L2,257.9z M32.7,254.5c0,0.2-3.7,0.7-3.7,0.7l-1,1.4c0,0,0.7,3.6,0.5,3.7
		l-2.4,1.4c-0.1,0.1-3-2.2-3-2.2l-1.6,0.2c0,0-2.1,3.1-2.2,3l-2.6-0.7c-0.2,0-0.7-3.7-0.7-3.7l-1.3-1c0,0-3.6,0.8-3.7,0.5l-1.4-2.4
		c-0.1-0.1,2.2-3.1,2.2-3.1l-0.2-1.6c0,0-3-2.1-2.9-2.3l0.7-2.7c0-0.2,3.7-0.7,3.7-0.7l1-1.4c0,0-0.7-3.6-0.5-3.7l2.4-1.4
		c0.1-0.1,3,2.2,3,2.2l1.6-0.2c0,0,2.1-3,2.3-3l2.6,0.7c0.2,0,0.7,3.7,0.7,3.7l1.3,1c0,0,3.6-0.8,3.7-0.5l1.4,2.4
		c0.1,0.1-2.2,3.1-2.2,3.1l0.2,1.6c0,0,3,2.1,2.9,2.3L32.7,254.5z"/>
	<path class="st2" d="M-14.9,229.2c-4.7,0-8.6,3.7-8.6,8.4c0,4.6,3.8,8.4,8.6,8.4c4.7,0,8.5-3.8,8.5-8.4
		C-6.3,233-10.2,229.2-14.9,229.2z"/>
</g>
</svg>
